<?xml version="1.0" standalone="no"?><!DOCTYPE svg PUBLIC "-//W3C//DTD SVG 1.1//EN" "http://www.w3.org/Graphics/SVG/1.1/DTD/svg11.dtd"><svg t="1656311365222" class="icon" viewBox="0 0 1024 1024" version="1.1" xmlns="http://www.w3.org/2000/svg" p-id="1096" width="128" height="128" xmlns:xlink="http://www.w3.org/1999/xlink"><defs><style type="text/css">@font-face { font-family: feedback-iconfont; src: url("//at.alicdn.com/t/font_1031158_u69w8yhxdu.woff2?t=1630033759944") format("woff2"), url("//at.alicdn.com/t/font_1031158_u69w8yhxdu.woff?t=1630033759944") format("woff"), url("//at.alicdn.com/t/font_1031158_u69w8yhxdu.ttf?t=1630033759944") format("truetype"); }
</style></defs><path d="M0 0m113.777778 0l796.444444 0q113.777778 0 113.777778 113.777778l0 796.444444q0 113.777778-113.777778 113.777778l-796.444444 0q-113.777778 0-113.777778-113.777778l0-796.444444q0-113.777778 113.777778-113.777778Z" fill="#86A3C4" p-id="1097"></path><path d="M616.106667 683.766519c-1.517037-2.465185-3.792593-5.271704-7.395556-12.060445-9.557333-17.332148-17.256296-82.337185-10.126222-107.785481 2.389333-8.533333 6.750815-22.452148 2.465185-29.999408-8.00237-13.956741-20.48-27.45837-34.133333-32.919704-20.024889-7.964444-33.147259-7.964444-54.916741-5.575111-21.655704-2.578963-34.816-2.427259-54.802963 5.575111-13.653333 5.461333-26.130963 18.962963-34.133333 32.919704-4.323556 7.585185 0 21.466074 2.427259 29.999408 7.168 25.448296-0.568889 90.453333-10.126222 107.785481-4.247704 7.585185-6.409481 10.315852-8.002371 13.084445 0 0-155.723852 175.066074-174.459259 335.568592h558.155852s-91.287704-222.435556-174.952296-336.592592z" fill="#FECDB4" p-id="1098"></path><path d="M676.143407 409.6c-13.387852-0.796444-18.24237 16.57363-24.158814 28.065185 26.168889-65.080889-0.910222-132.058074-36.598519-162.360889-27.534222-23.36237-67.963259-35.195259-109.340444-36.67437-41.415111 1.479111-81.844148 13.312-109.378371 36.67437-35.688296 30.340741-62.767407 97.28-36.598518 162.360889-5.916444-11.377778-10.770963-28.86163-24.158815-28.065185-42.287407 2.541037-32.768 51.730963-22.755556 70.200889s29.240889 32.805926 50.820741 33.678222a12.667259 12.667259 0 0 1 7.585185 1.668741 9.860741 9.860741 0 0 1 2.768593 4.740741c11.377778 32.57837 20.935111 60.340148 48.848592 84.233481 23.589926 20.176593 55.864889 35.309037 82.944 29.392593 27.041185 5.916444 59.316148-9.216 82.906075-29.392593 27.913481-23.893333 37.622519-51.655111 48.848592-84.233481a9.936593 9.936593 0 0 1 2.806519-4.740741 12.553481 12.553481 0 0 1 7.585185-1.668741c21.579852-0.872296 40.846222-15.397926 50.820741-33.678222s19.380148-67.621926-22.945186-70.200889z" fill="#FEE1D2" p-id="1099"></path><path d="M337.313185 703.032889L305.872593 1024h351.307851l8.647112-313.647407-162.550519 5.916444-165.963852-13.236148z" fill="#E2E6E6" p-id="1100"></path><path d="M360.068741 437.703111s-5.992296-56.888889 10.846815-77.899852c0 0-8.950519-41.453037 38.381037-67.470222S572.681481 259.185778 612.882963 304.165926s21.31437 63.905185 21.31437 63.905185 23.021037 52.603259 17.78726 69.632c0 0 10.012444-25.713778 24.158814-28.065185 0 0 8.988444-78.734222-5.688888-128.606815 0 0 18.583704-33.526519 15.625481-54.08237S581.897481 98.986667 450.484148 132.740741C362.951111 155.154963 355.214222 190.27437 322.56 233.699556c-30.037333 39.898074 7.585185 85.485037 7.585185 85.485037s-3.792593 67.849481 11.377778 92.197926a94.587259 94.587259 0 0 1 18.545778 26.320592z" fill="#423B38" p-id="1101"></path><path d="M562.441481 1024c-10.277926-83.437037-30.340741-255.469037-30.34074-255.469037l-39.063704 6.106074c0 2.768593-18.052741 167.822222-26.965333 249.362963z" fill="#373952" p-id="1102"></path><path d="M529.294222 789.352296h-30.151111a18.014815 18.014815 0 0 1-17.408-13.312l-9.178074-33.829926a18.014815 18.014815 0 0 1 17.408-22.755555H538.548148a18.014815 18.014815 0 0 1 17.408 22.755555l-9.178074 33.829926a18.090667 18.090667 0 0 1-17.483852 13.312z" fill="#393A54" p-id="1103"></path><path d="M417.450667 647.054222l-58.74726 42.477037s-173.738667 56.244148-204.458666 100.996741S123.259259 1024 123.259259 1024h297.263408c-43.273481-278.641778-3.072-376.945778-3.072-376.945778z" fill="#404863" p-id="1104"></path><path d="M421.850074 641.85837s45.511111 58.140444 91.022222 74.410667l-35.65037 10.126222-18.962963 85.295408-95.269926-81.237334 30.871704-81.237333z" fill="#F3F9FE" p-id="1105"></path><path d="M411.799704 635.183407L345.581037 678.874074a6.485333 6.485333 0 0 0-2.768593 3.792593l-42.780444 133.840592 59.278222 18.394074L295.822222 881.929481 318.577778 1024h118.935703c-6.068148-52.186074-30.340741-273.825185-15.17037-382.14163a6.826667 6.826667 0 0 0-10.543407-6.674963z" fill="#373952" p-id="1106"></path><path d="M666.81363 689.531259l-58.74726-42.477037s40.201481 98.304-3.072 376.945778h297.263408s-0.227556-188.757333-30.985482-233.472-204.458667-100.996741-204.458666-100.996741z" fill="#404863" p-id="1107"></path><path d="M605.563259 641.85837s-45.511111 58.140444-90.832592 74.410667l35.65037 10.126222 18.962963 85.295408 95.04237-81.237334-30.871703-81.237333z" fill="#F3F9FE" p-id="1108"></path><path d="M723.588741 816.507259l-42.780445-134.144a6.485333 6.485333 0 0 0-2.768592-3.792592l-66.218667-43.538963a6.826667 6.826667 0 0 0-10.543407 6.674963c14.866963 108.316444-9.291852 329.955556-15.170371 382.141629h118.935704l22.755556-142.070518-63.336297-47.028148z" fill="#373952" p-id="1109"></path></svg>